<?xml version="1.0" encoding="UTF-8" standalone="no"?><!DOCTYPE svg PUBLIC "-//W3C//DTD SVG 1.1//EN" "http://www.w3.org/Graphics/SVG/1.1/DTD/svg11.dtd"><svg width="100%" height="100%" viewBox="0 0 512 512" version="1.1" xmlns="http://www.w3.org/2000/svg" xmlns:xlink="http://www.w3.org/1999/xlink" xml:space="preserve" xmlns:serif="http://www.serif.com/" style="fill-rule:evenodd;clip-rule:evenodd;stroke-linejoin:round;stroke-miterlimit:2;"><path d="M53.785,311.775c12.363,-17.127 35.047,-22.305 39.114,-24.176c28.644,-13.175 91.408,-17.793 138.076,-1.828c61.347,20.988 75.84,6.453 116.256,-2.145c1.84,0.913 -1.189,21.79 -28.35,39.781c-28.268,18.724 -96.027,3.295 -113.562,8.101c-22.236,6.095 -15.557,17.402 -8.583,19.702c18.446,6.086 49.3,10.632 81.514,7.162c50.196,-5.407 86.851,-40.802 125.962,-66.882c7.96,-5.308 23.012,-9.746 29.629,-10.31c22.216,-1.892 28.389,1.356 28.153,3.418c-68.178,83.884 -128.595,113.189 -173.309,121.255c-43.526,7.853 -129.302,6.867 -188.001,-27.6c-30.175,-17.718 -46.662,-40.348 -48.632,-45.896c-2.846,-8.014 -3.135,-13.837 1.733,-20.582Z" style="fill:url(#_Linear1);"/><path d="M252.682,263.755c-43.085,-1.742 -77.53,-37.271 -77.53,-80.781c-0,-44.621 36.227,-80.848 80.848,-80.848c44.621,0 80.848,36.227 80.848,80.848c0,44.622 -36.227,80.848 -80.848,80.848c-0.947,0 -1.891,-0.016 -2.831,-0.048c1.897,-0.627 7.01,-7.235 11.979,-16.479c0.049,-0.116 11.392,-23.87 -2.859,-32.578c-19.36,-10.518 -22.609,-28.263 -13.458,-45.577c1.331,-2.519 -10.963,24.835 13.458,34.236c17.413,6.875 10.768,28.398 3.993,41.759c9.236,-18.043 17.065,-44.448 1.344,-57.172c-20.383,-16.497 -12.494,-31.911 -14.937,-30.444c-16.786,10.087 -29.757,42.096 2.755,66.228c17.789,13.205 -2.731,39.202 -2.762,40.008Z" style="fill:url(#_Radial2);"/><defs><linearGradient id="_Linear1" x1="0" y1="0" x2="1" y2="0" gradientUnits="userSpaceOnUse" gradientTransform="matrix(31.8613,191.481,-66.5327,11.0706,238.282,216.891)"><stop offset="0" style="stop-color:#25a4ba;stop-opacity:1"/><stop offset="1" style="stop-color:#0e6979;stop-opacity:1"/></linearGradient><radialGradient id="_Radial2" cx="0" cy="0" r="1" gradientUnits="userSpaceOnUse" gradientTransform="matrix(-59.6294,155.105,-155.105,-59.6294,211.358,87.0401)"><stop offset="0" style="stop-color:#fff;stop-opacity:1"/><stop offset="0.63" style="stop-color:#16b492;stop-opacity:1"/><stop offset="1" style="stop-color:#0a8fa6;stop-opacity:1"/></radialGradient></defs></svg>